<svg width="120" height="58" viewBox="0 0 120 58" fill="none" xmlns="http://www.w3.org/2000/svg">
<circle cx="1.5" cy="1.92871" r="1.5" fill="#BBE7F0"/>
<circle cx="14.5" cy="1.92871" r="1.5" fill="#BBE7F0"/>
<circle cx="27.5" cy="1.92871" r="1.5" fill="#BBE7F0"/>
<circle cx="1.5" cy="10.9287" r="1.5" fill="#BBE7F0"/>
<circle cx="14.5" cy="10.9287" r="1.5" fill="#BBE7F0"/>
<circle cx="27.5" cy="10.9287" r="1.5" fill="#BBE7F0"/>
<circle cx="1.5" cy="19.9287" r="1.5" fill="#BBE7F0"/>
<circle cx="14.5" cy="19.9287" r="1.5" fill="#BBE7F0"/>
<circle cx="27.5" cy="19.9287" r="1.5" fill="#BBE7F0"/>
<circle cx="40.5" cy="19.9287" r="1.5" fill="#BBE7F0"/>
<circle cx="1.5" cy="28.9287" r="1.5" fill="#BBE7F0"/>
<circle cx="14.5" cy="28.9287" r="1.5" fill="#BBE7F0"/>
<circle cx="27.5" cy="28.9287" r="1.5" fill="#BBE7F0"/>
<circle cx="40.5" cy="28.9287" r="1.5" fill="#BBE7F0"/>
<circle cx="1.5" cy="37.9287" r="1.5" fill="#BBE7F0"/>
<circle cx="14.5" cy="37.9287" r="1.5" fill="#BBE7F0"/>
<circle cx="27.5" cy="37.9287" r="1.5" fill="#BBE7F0"/>
<circle cx="40.5" cy="37.9287" r="1.5" fill="#BBE7F0"/>
<circle cx="53.5" cy="37.9287" r="1.5" fill="#BBE7F0"/>
<circle cx="66.5" cy="37.9287" r="1.5" fill="#BBE7F0"/>
<circle cx="1.5" cy="46.9287" r="1.5" fill="#BBE7F0"/>
<circle cx="14.5" cy="46.9287" r="1.5" fill="#BBE7F0"/>
<circle cx="27.5" cy="46.9287" r="1.5" fill="#BBE7F0"/>
<circle cx="40.5" cy="46.9287" r="1.5" fill="#BBE7F0"/>
<circle cx="53.5" cy="46.9287" r="1.5" fill="#BBE7F0"/>
<circle cx="66.5" cy="46.9287" r="1.5" fill="#BBE7F0"/>
<circle cx="79.5" cy="46.9287" r="1.5" fill="#BBE7F0"/>
<circle cx="92.5" cy="46.9287" r="1.5" fill="#BBE7F0"/>
<circle cx="1.5" cy="55.9287" r="1.5" fill="#BBE7F0"/>
<circle cx="14.5" cy="55.9287" r="1.5" fill="#BBE7F0"/>
<circle cx="27.5" cy="55.9287" r="1.5" fill="#BBE7F0"/>
<circle cx="40.5" cy="55.9287" r="1.5" fill="#BBE7F0"/>
<circle cx="53.5" cy="55.9287" r="1.5" fill="#BBE7F0"/>
<circle cx="66.5" cy="55.9287" r="1.5" fill="#BBE7F0"/>
<circle cx="79.5" cy="55.9287" r="1.5" fill="#BBE7F0"/>
<circle cx="92.5" cy="55.9287" r="1.5" fill="#BBE7F0"/>
<circle cx="105.5" cy="55.9287" r="1.5" fill="#BBE7F0"/>
<circle cx="118.5" cy="55.9287" r="1.5" fill="#BBE7F0"/>
</svg>
