<svg width="24" height="24" viewBox="0 0 24 24" fill="none" xmlns="http://www.w3.org/2000/svg">
<path fill-rule="evenodd" clip-rule="evenodd" d="M9.66667 16.3333C9 16.3333 7 14.3333 7 13.6667C7 13.4447 7.222 13 7.66667 12.3333L5 11.6667C5 11.6667 6 10.3738 6.66667 10.0404C7.33333 9.70711 9 10.3333 9 10.3333C11.6667 6.33333 15.6667 5 18.3333 5C18.3333 7.66667 17 11.6667 13 14.3333C13 14.3333 13.2929 16.3333 13 17C12.7071 17.6667 11.6667 18.3333 11.6667 18.3333L11 15.6667C10.3333 16.1113 9.88867 16.3333 9.66667 16.3333ZM14 10.3333C14.2652 10.3333 14.5196 10.228 14.7071 10.0404C14.8946 9.8529 15 9.59855 15 9.33333C15 9.06812 14.8946 8.81376 14.7071 8.62623C14.5196 8.43869 14.2652 8.33333 14 8.33333C13.7348 8.33333 13.4804 8.43869 13.2929 8.62623C13.1054 8.81376 13 9.06812 13 9.33333C13 9.59855 13.1054 9.8529 13.2929 10.0404C13.4804 10.228 13.7348 10.3333 14 10.3333ZM6.33333 14.3333L7 15.3333C6.55533 15.778 6.33333 16.3333 6.33333 17C7 17 7.55533 16.778 8 16.3333L9 17C8.11133 17.8887 6.778 18.3333 5 18.3333C5 16.5553 5.44467 15.222 6.33333 14.3333Z" fill="white"/>
</svg>
