<svg width="24" height="24" viewBox="0 0 24 24" fill="none" xmlns="http://www.w3.org/2000/svg">
<circle cx="16.8347" cy="15.6" r="1.8" fill="white"/>
<circle cx="7.23466" cy="15.6" r="1.8" fill="white"/>
<path fill-rule="evenodd" clip-rule="evenodd" d="M4.53447 15.3C3.33444 15.6 2.43449 14.7 2.43449 14.1C2.43449 13.8618 2.42575 13.6197 2.41707 13.3792C2.38586 12.5142 2.35538 11.6697 2.73449 11.1C3.10635 10.5412 4.27392 10.2891 4.53445 10.3325C4.93445 9.03253 6.15447 6.37252 7.83447 6.13252C9.51447 5.89252 12.3345 6.03252 13.5345 6.13252C14.1345 6.23252 15.6945 7.21252 17.1345 10.3325C18.9345 10.3326 21.0345 10.6326 21.3345 11.8326C21.5745 12.7926 21.6345 13.6326 21.3345 14.5326C21.0345 15.1326 20.4945 15.4325 19.5345 15.4325L19.5207 15.3774C19.2249 14.1922 18.9024 12.9 16.8345 12.9C14.6745 12.9 14.1345 14.9 14.1345 15.9H9.93447C10.0345 14.9 9.63446 12.9 7.23446 12.9C4.83446 12.9 4.53447 14.4 4.53447 15.3ZM10.2001 9.90001V7.50001H8.36552C7.19743 7.5 6.82011 9.01605 6.61641 9.83454L6.60009 9.90001H10.2001ZM11.4347 7.5V9.9H15.0347C14.8347 9.1 14.2547 7.5 13.5347 7.5H11.4347Z" fill="white"/>
</svg>
