<svg width="24" height="24" viewBox="0 0 24 24" fill="none" xmlns="http://www.w3.org/2000/svg">
<path fill-rule="evenodd" clip-rule="evenodd" d="M12.016 2.39996C10.816 2.39996 10.116 3.19996 9.91599 3.59996C8.31599 7.39996 5.05599 15.72 4.81599 18.6C4.57599 21.48 7.11599 21.6 8.41599 21.3L12.016 19.5L15.616 21.3C16.916 21.6 19.456 21.48 19.216 18.6C18.976 15.72 15.716 7.39996 14.116 3.59996C13.916 3.19996 13.216 2.39996 12.016 2.39996Z" fill="white"/>
<path d="M18.6822 12.8825L17.3345 9.06402C17.2115 8.7157 17.4302 8.34067 17.7991 8.32187C19.0009 8.26062 20.7093 8.52149 21.3001 9.89997C21.9058 11.3132 20.5725 12.5425 19.479 13.1949C19.1767 13.3752 18.7993 13.2144 18.6822 12.8825Z" fill="white"/>
<path d="M5.1695 12.8825L6.51719 9.06402C6.64012 8.7157 6.42149 8.34067 6.05259 8.32187C4.85072 8.26062 3.14233 8.52149 2.55156 9.89997C1.94587 11.3132 3.27918 12.5425 4.37267 13.1949C4.67498 13.3752 5.05234 13.2144 5.1695 12.8825Z" fill="white"/>
</svg>
