<svg width="24" height="24" viewBox="0 0 24 24" fill="none" xmlns="http://www.w3.org/2000/svg">
<path fill-rule="evenodd" clip-rule="evenodd" d="M5.53874 5.7531C5.05874 6.4731 5.93874 7.0531 6.43874 7.2531C7.02133 7.5903 7.19026 9.25247 7.47418 12.0462L7.49999 12.3C7.68763 14.1432 8.99999 14.9 9.59999 15C9.83969 15.012 10.1179 15.0279 10.4235 15.0454L10.4237 15.0454C12.6682 15.1738 16.3938 15.3868 17.2387 14.7531C18.2356 14.0055 18.6114 11.8086 18.882 10.2263L18.882 10.2263C18.9372 9.9039 18.9879 9.60702 19.0387 9.35313C19.2787 8.15313 18.5387 7.85313 18.1387 7.85313C15.1387 7.75312 8.95871 7.5531 8.23871 7.5531C8.23871 5.7531 6.13874 4.8531 5.53874 5.7531ZM11.539 9.00001C11.8703 9.00001 12.139 9.26864 12.139 9.60001V12.6C12.139 12.9314 11.8703 13.2 11.539 13.2C11.2076 13.2 10.939 12.9314 10.939 12.6V9.60001C10.939 9.26864 11.2076 9.00001 11.539 9.00001ZM14.839 9.60001C14.839 9.26864 14.5703 9.00001 14.239 9.00001C13.9076 9.00001 13.639 9.26864 13.639 9.60001V12.6C13.639 12.9314 13.9076 13.2 14.239 13.2C14.5703 13.2 14.839 12.9314 14.839 12.6V9.60001Z" fill="white"/>
<circle cx="15.439" cy="17.4" r="1.2" fill="white"/>
<circle cx="10.639" cy="17.4" r="1.2" fill="white"/>
</svg>
