<svg width="24" height="24" viewBox="0 0 24 24" fill="none" xmlns="http://www.w3.org/2000/svg">
<path fill-rule="evenodd" clip-rule="evenodd" d="M6.60001 6.60001C6.60001 5.27453 7.67452 4.20001 9.00001 4.20001H15C16.3255 4.20001 17.4 5.27453 17.4 6.60001V16.8C17.4 18.1255 16.3255 19.2 15 19.2H9.00001C7.67453 19.2 6.60001 18.1255 6.60001 16.8V6.60001ZM8.39991 7.2C8.39991 6.53726 8.93717 6 9.59991 6H14.3999C15.0626 6 15.5999 6.53726 15.5999 7.2V13.2C15.5999 13.8627 15.0626 14.4 14.3999 14.4H9.59991C8.93717 14.4 8.39991 13.8627 8.39991 13.2V7.2ZM11.9999 18C12.6627 18 13.1999 17.4627 13.1999 16.8C13.1999 16.1373 12.6627 15.6 11.9999 15.6C11.3372 15.6 10.7999 16.1373 10.7999 16.8C10.7999 17.4627 11.3372 18 11.9999 18Z" fill="white"/>
<path d="M10.1999 10.5L11.9999 7.20001V9.30001H13.4999L11.9999 12.6V10.5H10.1999Z" fill="white"/>
</svg>
