<svg width="24" height="24" viewBox="0 0 24 24" fill="none" xmlns="http://www.w3.org/2000/svg">
<path d="M12.2037 5.69993C12.2037 6.41993 13.4037 6.39993 14.0037 6.29993C14.0412 6.39995 14.2137 7.01998 14.6037 8.69998C15.5037 13.8 13.7037 14.1 12.5037 14.4C11.3037 14.7 10.4037 12 11.3037 12C12.0237 12 12.6037 11.4 12.8037 11.1C13.1037 9.59998 13.1037 8.69998 8.90371 8.69998C4.1037 8.69998 4.40374 9.59998 3.80374 9.89998C3.32374 10.14 3.80372 10.8 4.1037 11.1C3.9037 11.5 3.20371 12.6 4.1037 12.9C5.9037 12.3 7.10371 12.3 8.60371 13.2C9.80371 13.92 9.90371 15.9 9.8037 16.8H14.3037C14.2037 16.4 14.1355 15.0045 15.2037 13.8C16.7036 12.1087 17.7001 12.6 19.2001 12.6C19.5001 9.29998 16.7037 7.19998 15.8037 6.59998C16.7637 6.59998 16.4037 5.59997 16.1037 5.09997C15.7037 4.59997 14.7237 3.65997 14.0037 3.89997C13.2837 4.13997 13.5037 4.99995 13.7037 5.39993C13.2037 5.19993 12.2037 4.97993 12.2037 5.69993Z" fill="white"/>
<circle cx="17.9036" cy="16.2" r="2.4" fill="white"/>
<circle cx="6.50361" cy="16.2" r="2.4" fill="white"/>
</svg>
