<svg width="24" height="24" viewBox="0 0 24 24" fill="none" xmlns="http://www.w3.org/2000/svg">
<path d="M17.7141 11.285L12.7141 6.28501C12.619 6.19397 12.5068 6.12261 12.3841 6.07501C12.1406 5.975 11.8676 5.975 11.6241 6.07501C11.5013 6.12261 11.3892 6.19397 11.2941 6.28501L6.29409 11.285C6.20085 11.3783 6.12689 11.4889 6.07643 11.6108C6.02597 11.7326 6 11.8632 6 11.995C6 12.2613 6.10579 12.5167 6.29409 12.705C6.4824 12.8933 6.73779 12.9991 7.00409 12.9991C7.27039 12.9991 7.52579 12.8933 7.71409 12.705L11.0041 9.40501V16.995C11.0041 17.2602 11.1094 17.5146 11.297 17.7021C11.4845 17.8897 11.7389 17.995 12.0041 17.995C12.2693 17.995 12.5237 17.8897 12.7112 17.7021C12.8987 17.5146 13.0041 17.2602 13.0041 16.995V9.40501L16.2941 12.705C16.3871 12.7987 16.4977 12.8731 16.6195 12.9239C16.7414 12.9747 16.8721 13.0008 17.0041 13.0008C17.1361 13.0008 17.2668 12.9747 17.3887 12.9239C17.5105 12.8731 17.6211 12.7987 17.7141 12.705C17.8078 12.6121 17.8822 12.5014 17.933 12.3796C17.9838 12.2577 18.0099 12.127 18.0099 11.995C18.0099 11.863 17.9838 11.7323 17.933 11.6104C17.8822 11.4886 17.8078 11.378 17.7141 11.285Z" fill="white"/>
</svg>
