<svg width="41" height="41" viewBox="0 0 41 41" fill="none" xmlns="http://www.w3.org/2000/svg">
<path fill-rule="evenodd" clip-rule="evenodd" d="M20.2312 0.428711C17.7065 0.428711 16.2337 2.11185 15.8129 2.95342C12.4467 10.9483 5.58788 28.453 5.08294 34.5123C4.578 40.5716 9.92196 40.824 12.6571 40.1929L20.2312 36.4058L27.8053 40.1929C30.5404 40.824 35.8844 40.5716 35.3794 34.5123C34.8745 28.453 28.0157 10.9483 24.6494 2.95342C24.2286 2.11185 22.7559 0.428711 20.2312 0.428711Z" fill="#0AAFD9"/>
<path d="M34.3515 22.753L31.3183 14.1589C31.1134 13.5784 31.4768 12.9531 32.0907 12.9072C34.626 12.7177 38.4699 13.1881 39.7641 16.2081C41.0846 19.2891 38.0249 21.9544 35.6851 23.2845C35.1751 23.5744 34.5468 23.3063 34.3515 22.753Z" fill="#0AAFD9"/>
<path d="M5.73148 22.753L8.76469 14.1589C8.96958 13.5784 8.60622 12.9531 7.99231 12.9072C5.45697 12.7177 1.61311 13.1881 0.318828 16.2081C-1.00159 19.2891 2.05804 21.9544 4.39785 23.2845C4.90791 23.5744 5.53621 23.3063 5.73148 22.753Z" fill="#0AAFD9"/>
<path d="M15.5427 22.7087C14.7427 22.7087 14.2093 23.3754 14.0427 23.7087C13.5427 28.7087 17.5427 31.2087 20.5427 31.2087C23.5427 31.2087 25.6591 27.7427 26.0426 26.2087C26.5426 24.2087 26.5426 23.7087 25.5426 22.7087C24.5426 21.7087 21.5427 23.7087 20.0427 23.7087C18.5427 23.7087 16.5427 22.7087 15.5427 22.7087Z" fill="#00263E"/>
<mask id="mask0_1_423" style="mask-type:alpha" maskUnits="userSpaceOnUse" x="14" y="22" width="13" height="10">
<path d="M15.5427 22.7087C14.7427 22.7087 14.2093 23.3754 14.0427 23.7087C13.5427 28.7087 17.5427 31.2087 20.5427 31.2087C23.5427 31.2087 25.6591 27.7427 26.0426 26.2087C26.5426 24.2087 26.5426 23.7087 25.5426 22.7087C24.5426 21.7087 21.5427 23.7087 20.0427 23.7087C18.5427 23.7087 16.5427 22.7087 15.5427 22.7087Z" fill="#BDE1EC"/>
</mask>
<g mask="url(#mask0_1_423)">
<path d="M15.5427 17.9887C14.7427 17.9887 14.2093 18.6554 14.0427 18.9887C13.5427 23.9887 17.5427 26.4888 20.5427 26.4888C23.5427 26.4888 25.6591 23.0227 26.0426 21.4888C26.5426 19.4888 26.5426 18.9887 25.5426 17.9887C24.5426 16.9887 21.5427 18.9887 20.0427 18.9887C18.5427 18.9887 16.5427 17.9887 15.5427 17.9887Z" fill="#BDE1EC"/>
</g>
<path d="M19 28.7087C17.8 27.9087 15.8333 28.042 15 28.2087L15 28.2087C15.3333 28.7087 15.8 29.4087 17 30.2087C18.2 31.0087 20.1667 31.5421 21 31.2087C20.6667 30.8754 20.2 29.5087 19 28.7087Z" fill="#405C70"/>
<path d="M14 11.4287C14.4 10.833 15.56 9.87996 17 10.833" stroke="#00263E" stroke-linecap="round"/>
<path d="M26 11.4287C25.6 10.833 24.44 9.87996 23 10.833" stroke="#00263E" stroke-linecap="round"/>
<path d="M19 16.4287C19 18.6378 16.3137 20.4287 13 20.4287C9.68629 20.4287 7 17.6378 7 15.4287C7 13.2196 9.68629 12.4287 13 12.4287C16.3137 12.4287 19 13.2218 19 16.4287Z" fill="#00263E"/>
<path d="M12.5 12.9287C7.68336 12.9287 7 13.9287 7 14.9287C7 16.4287 9.95862 20.4287 13 20.4287C16.5 20.4287 19 18.4287 19 15.9287C19 13.4287 18.5 12.9287 12.5 12.9287Z" stroke="#45D3E7" stroke-linecap="round"/>
<ellipse cx="10.5" cy="15.4287" rx="1.5" ry="1" fill="#405C70"/>
<path d="M21 16.4287C21 18.6378 23.6863 20.4287 27 20.4287C30.3137 20.4287 33 17.6378 33 15.4287C33 13.2196 30.3137 12.4287 27 12.4287C23.6863 12.4287 21 13.2218 21 16.4287Z" fill="#00263E"/>
<path d="M27.5 12.9287C32.3166 12.9287 33 13.9287 33 14.9287C33 16.4287 30.0414 20.4287 27 20.4287C23.5 20.4287 21 18.4287 21 15.9287C21 13.4287 21.5 12.9287 27.5 12.9287Z" stroke="#45D3E7" stroke-linecap="round"/>
<ellipse rx="1.5" ry="1" transform="matrix(-1 0 0 1 29.5 15.4287)" fill="#405C70"/>
<path d="M22.5 2.92871C22.8333 3.26204 23.5 4.12871 23.5 4.92871" stroke="white" stroke-opacity="0.5" stroke-linecap="round"/>
<path d="M38 15.4287C38.3333 15.762 39 16.6287 39 17.4287" stroke="white" stroke-opacity="0.5" stroke-linecap="round"/>
</svg>
